<svg id="a244ec81-a794-4d92-a606-f376dc8ac6b7" data-name="Layer 1" xmlns="http://www.w3.org/2000/svg" width="120" height="120" viewBox="0 0 120 120">
  <defs>
    <style>
      .\34 a8711d1-eded-429c-ad65-23910aa8ea46 {
        fill: #f1f1f2;
      }

      .a272baba-835f-48ba-9dbb-00958c65486d {
        fill: #d0d2d3;
      }
    </style>
  </defs>
  <title>placeholder-person</title>
  <rect class="4a8711d1-eded-429c-ad65-23910aa8ea46" width="120" height="120"/>
  <path class="a272baba-835f-48ba-9dbb-00958c65486d" d="M60,17a43,43,0,1,0,0,86c23.6,0,43.1-19.3,43-42.9A43,43,0,0,0,60,17Zm1.7,81.5a38.5,38.5,0,0,1-26.7-9l5.8-3.7,7.5-4.1A2.9,2.9,0,0,0,50,79c0-1.7,0-3.5,0-5.2a3.4,3.4,0,0,0-.4-1.5,20,20,0,0,1-2-5.9,2.6,2.6,0,0,0-1.6-2.2l-.3-.3A16.5,16.5,0,0,1,43.9,57l1.1-.5a2.4,2.4,0,0,0,.8-2.9A12.5,12.5,0,0,1,47,43.2a18.7,18.7,0,0,1,5.5-5.9,13.2,13.2,0,0,1,5.9-2.6c4.6-.7,8.6.3,11.9,3.8.3.3.5.7.8,1a2.9,2.9,0,0,0,1.2.8,3.9,3.9,0,0,1,3,2.7,15.1,15.1,0,0,1,.7,6.9c-.2,1.7-.5,3.4-.7,5.1a2.3,2.3,0,0,0,.8,2.2,1.1,1.1,0,0,1,.4.8,17.7,17.7,0,0,1-1.7,6.2,1,1,0,0,1-.7.4,2.1,2.1,0,0,0-1.9,1.6l-1.8,5.8a2.5,2.5,0,0,0-.1.7c0,2,0,4,0,6a3,3,0,0,0,1.8,2.9,112.5,112.5,0,0,1,12.4,7.2l.7.5A39.1,39.1,0,0,1,61.7,98.5ZM88.2,86.1,77.4,79.6l-2.5-1.4-.3-.3v-.4c0-.7,0-1.3,0-2s0-.7,0-1,0-.7,0-1v-1L75,72l.3-.7v-.4a5.2,5.2,0,0,1,1.7-2.6,6,6,0,0,0,1.5-2.1l.4-.8.7-1.6a19.5,19.5,0,0,0,1.1-5.1,8.2,8.2,0,0,0,0-1,6.1,6.1,0,0,0-.4-1.9l-.4-.9v-.2a1.9,1.9,0,0,1,0-.6v-.3l.2-1.2a28.9,28.9,0,0,0,.2-7.1l-.2-1.2a12.4,12.4,0,0,0-1.8-4.8,8.5,8.5,0,0,0-1.6-1.8,9.2,9.2,0,0,0-2.3-1.4l-.3-.2-.2-.3-1.1-1.2a15.4,15.4,0,0,0-2.5-2L69,31.9a16.7,16.7,0,0,0-4.5-1.5l-1.6-.2a19.2,19.2,0,0,0-4,0l-1.2.2-2.4.6-1.1.4a18.9,18.9,0,0,0-3.2,1.7,23.2,23.2,0,0,0-2.9,2.3A30.9,30.9,0,0,0,45.2,38a17.8,17.8,0,0,0-4.4,12.2,10.6,10.6,0,0,0,.1,1.2c.1.4.1.8.2,1.2v.2a1.4,1.4,0,0,1,0,.2.4.4,0,0,1-.1.3,4.9,4.9,0,0,0-1.5,3.6,10.3,10.3,0,0,0,.1,1.4v.9a20.7,20.7,0,0,0,1.8,6l.4.7.4.6.9,1.2.3.6,1.3,3.7.7,1.9V75c0,.4,0,.9,0,1.3s0,.9,0,1.3V78l-.3.3L41.9,80,36.9,83l-4.8,3.1h-.2a37.3,37.3,0,0,1-9.9-20,38.7,38.7,0,0,1-.5-7A38.4,38.4,0,0,1,83.8,29.8,39.4,39.4,0,0,1,88.4,34a38.3,38.3,0,0,1,10,23.3q.1,1.8.1,3.5a38.4,38.4,0,0,1-4.2,16.8A35.8,35.8,0,0,1,88.2,86.1Z"/>
</svg>
